:SAMPLES-PER-SECOND 25
:FULLY-SPECIFIED
:DEGREES
21
root  -2.36171 38.8429 -65.8484 -7.1579 -10.7001 -2.498
RightUpLeg  5.9525 4.84494 7.30016
RightLeg  18.1681 -0.0107065 -1.02198
RightFoot  -16.6946 -0.282881 -3.63619
RightToes  2.84633e-005 7.89722e-005 -0.000426369
Spine  5.15011 1.15897 2.23536
Spine1  10.9453 1.57229 0.272981
HEad  -0.795183 -20.1063 -2.01201
LeftShoulder1  -3.88251e-019 0 -3.92111e-022
LeftArm  -28.7835 -10.4741 -79.0006
LeftForeArm  32.9488 1.01822 -2.32835
LeftHand  -0.617432 -4.67979 7.40654
RightShoulder  7.45443e-017 -2.42657e-020 1.96277e-018
RightArm  -15.9264 -8.50062 73.2976
RightForeArm  24.1553 12.2544 9.63505
RightHand  -0.847722 8.4568 -7.46168
LeftUpLeg  -55.4349 -0.760509 7.17194
LeftLeg  63.6482 0.604965 1.98619
LeftFoot  -20.1785 0.118671 -0.0311171
LeftToes  3.91355e-005 3.11907e-005 -4.10385e-006
22
root  -2.39524 38.8654 -66.2232 -7.43719 -11.1164 -2.28309
RightUpLeg  5.48837 5.46644 7.34515
RightLeg  18.441 -0.322626 -1.08612
RightFoot  -16.2898 -0.271218 -3.82084
RightToes  2.84633e-005 7.89722e-005 -0.000426369
Spine  5.05022 1.44137 2.12844
Spine1  10.7217 2.14187 0.203625
HEad  -0.170615 -20.2491 -1.84277
LeftShoulder1  -3.88251e-019 0 -3.92111e-022
LeftArm  -30.3833 -7.65665 -78.5773
LeftForeArm  32.6517 2.24649 -1.49513
LeftHand  -0.63243 -4.50561 7.70234
RightShoulder  7.45443e-017 -2.42657e-020 1.96277e-018
RightArm  -17.64 -10.2611 73.4245
RightForeArm  25.1877 11.5335 9.68162
RightHand  -0.841038 8.29444 -7.48737
LeftUpLeg  -54.9245 -1.58578 7.72152
LeftLeg  62.3816 1.0019 2.7087
LeftFoot  -20.4739 0.0524591 -0.882614
LeftToes  3.91355e-005 3.11907e-005 -4.10385e-006
23
root  -2.40746 38.8767 -66.6635 -7.74932 -11.7308 -2.50634
RightUpLeg  4.95721 5.89817 7.72204
RightLeg  18.7878 -0.296511 -0.934443
RightFoot  -15.6935 -0.260534 -4.06006
RightToes  2.84633e-005 7.89722e-005 -0.000426369
Spine  5.24923 1.80842 2.30051
Spine1  11.1016 2.86784 0.69724
HEad  -0.836224 -20.5921 -2.4975
LeftShoulder1  -3.88251e-019 0 -3.92111e-022
LeftArm  -32.0298 -5.4046 -78.7597
LeftForeArm  32.3247 2.1502 -0.25049
LeftHand  -0.713434 -4.14898 8.95304
RightShoulder  7.45443e-017 -2.42657e-020 1.96277e-018
RightArm  -20.4088 -10.6492 72.9076
RightForeArm  28.7242 9.73585 9.62322
RightHand  -0.790108 8.57816 -6.92558
LeftUpLeg  -54.3498 -1.98612 8.62191
LeftLeg  61.0267 1.38505 3.30961
LeftFoot  -20.7815 0.0287966 -1.16172
LeftToes  3.91355e-005 3.11907e-005 -4.10385e-006
24
root  -2.46817 38.8853 -67.1769 -8.0484 -11.4099 -2.73553
RightUpLeg  4.39068 6.07185 8.23363
RightLeg  18.9974 -0.94445 -1.04912
RightFoot  -15.2474 -0.254488 -4.44164
RightToes  2.84633e-005 7.89722e-005 -0.000426369
Spine  5.32864 1.94934 2.4199
Spine1  11.2436 3.13274 1.11722
HEad  -0.616575 -21.118 -3.08829
LeftShoulder1  -3.88251e-019 0 -3.92111e-022
LeftArm  -33.1039 -3.09885 -79.5508
LeftForeArm  31.5549 1.98618 1.3678
LeftHand  -0.729989 -3.75437 9.52115
RightShoulder  7.45443e-017 -2.42657e-020 1.96277e-018
RightArm  -23.4724 -10.8946 72.3182
RightForeArm  33.3113 7.39674 8.90875
RightHand  -0.736452 8.47288 -6.528
LeftUpLeg  -53.9037 -3.07498 9.44749
LeftLeg  59.2531 1.74865 3.74178
LeftFoot  -21.2232 -0.0653782 -2.21624
LeftToes  3.91355e-005 3.11907e-005 -4.10385e-006
25
root  -2.59819 38.9061 -67.7088 -8.02481 -10.0726 -2.69974
RightUpLeg  3.46834 6.02819 8.51203
RightLeg  19.1366 -2.60202 -1.57445
RightFoot  -15.0924 -0.25917 -4.79584
RightToes  2.84633e-005 7.89722e-005 -0.000426369
Spine  5.08612 1.80041 2.28052
Spine1  10.7346 2.81187 1.06535
HEad  0.799047 -21.3478 -2.86259
LeftShoulder1  -3.88251e-019 0 -3.92111e-022
LeftArm  -33.8314 -1.31118 -80.0621
LeftForeArm  32.0304 1.89903 2.74333
LeftHand  -0.697031 -3.57422 9.27639
RightShoulder  7.45443e-017 -2.42657e-020 1.96277e-018
RightArm  -25.0398 -11.8733 72.2202
RightForeArm  34.6078 6.11429 7.96871
RightHand  -0.811858 8.27213 -7.25241
LeftUpLeg  -54.0352 -5.17219 10.1242
LeftLeg  57.2801 1.99866 3.88623
LeftFoot  -21.0303 -0.252903 -4.46113
LeftToes  3.91355e-005 3.11907e-005 -4.10385e-006
26
root  -2.78022 38.9823 -68.1898 -7.13171 -8.49971 -2.53089
RightUpLeg  1.77059 5.92246 8.51206
RightLeg  19.1996 -4.72118 -2.30971
RightFoot  -15.7836 -0.28638 -4.63161
RightToes  2.84633e-005 7.89722e-005 -0.000426369
Spine  4.54665 1.5937 1.9259
Spine1  9.62809 2.35657 0.630085
HEad  2.51036 -21.4677 -1.9552
LeftShoulder1  -3.88251e-019 0 -3.92111e-022
LeftArm  -34.2859 -0.260209 -80.2158
LeftForeArm  33.7695 1.82701 3.57307
LeftHand  -0.696754 -3.51992 9.32636
RightShoulder  7.45443e-017 -2.42657e-020 1.96277e-018
RightArm  -26.0347 -13.3738 72.3896
RightForeArm  33.3814 6.15068 7.52738
RightHand  -0.94256 8.33042 -8.32169
LeftUpLeg  -55.0087 -7.17103 10.7968
LeftLeg  55.079 2.1181 3.7661
LeftFoot  -19.5982 -0.369986 -6.74651
LeftToes  3.91355e-005 3.11907e-005 -4.10385e-006
27
root  -3.01301 39.1009 -68.5759 -5.68126 -7.03792 -2.51391
RightUpLeg  -0.125286 5.99651 8.72905
RightLeg  19.0609 -6.72365 -3.03464
RightFoot  -18.0368 -0.35062 -3.91788
RightToes  2.84633e-005 7.89722e-005 -0.000426369
Spine  3.82615 1.42564 1.52831
Spine1  8.16469 1.97149 0.0885353
HEad  4.46657 -21.5486 -0.800334
LeftShoulder1  -3.88251e-019 0 -3.92111e-022
LeftArm  -34.2799 0.752116 -80.4585
LeftForeArm  34.3936 1.81025 3.74141
LeftHand  -0.70312 -3.53011 9.39901
RightShoulder  7.45443e-017 -2.42657e-020 1.96277e-018
RightArm  -26.5599 -15.1225 72.505
RightForeArm  31.7416 6.9437 7.65333
RightHand  -0.970315 8.28635 -8.58018
LeftUpLeg  -56.3472 -8.11745 11.4745
LeftLeg  52.8174 1.85902 3.11173
LeftFoot  -17.6425 -0.375837 -8.74176
LeftToes  3.91355e-005 3.11907e-005 -4.10385e-006
